<svg xmlns="http://www.w3.org/2000/svg" viewBox="0 0 100 100" fill="none" width="100" height="100"><path fill-rule="evenodd" clip-rule="evenodd" d="M100 50a50 50 0 1 1 -100 0 50 50 0 0 1 100 0zm-29.412 0L38.235 29.412v41.176L70.588 50zm-10.941 0L44.118 40.118v19.765l15.529 -9.882zM50 94.118a44.118 44.118 0 1 0 0 -88.235 44.118 44.118 0 0 0 0 88.235z" fill="#000" fill-opacity=".15"/><path fill-rule="evenodd" clip-rule="evenodd" d="M94.118 50a44.118 44.118 0 1 1 -88.235 0 44.118 44.118 0 0 1 88.235 0zm-23.529 0L38.235 70.588V29.412L70.588 50z" fill="#fff"/></svg>