<svg xmlns="http://www.w3.org/2000/svg" width="100" height="40" fill="none" viewBox="0 0 100 40"><path opacity=".5" fill-rule="evenodd" clip-rule="evenodd" d="M75.667 36.667c9.833 0 17.667 -7.367 17.667 -16.667s-7.833 -16.667 -17.667 -16.667H24.333C14.5 3.333 6.667 10.7 6.667 20s7.833 16.667 17.667 16.667h51.333zm-9 -2.5v-28.333l22.333 14.2 -22.333 14.133z" fill="#fff"/><path opacity=".5" fill-rule="evenodd" clip-rule="evenodd" d="M24.333 3.333C14.5 3.333 6.667 10.7 6.667 20s7.833 16.667 17.667 16.667h51.333A17.2 17.2 0 0 0 93.333 20l-0.1 -1.8A17.2 17.2 0 0 0 75.667 3.333H24.333zm51.333 36.667c11.5 0 21 -8.667 21 -20s-9.5 -20 -21 -20H24.333C12.833 0 3.333 8.667 3.333 20s9.5 20 21 20h51.333z" fill="#000" fill-opacity=".3"/></svg>