<?xml version="1.0" encoding="utf-8"?>
<!-- Generator: Adobe Illustrator 26.0.0, SVG Export Plug-In . SVG Version: 6.00 Build 0)  -->
<svg version="1.1" id="Layer_1" xmlns="http://www.w3.org/2000/svg" xmlns:xlink="http://www.w3.org/1999/xlink" x="0px" y="0px"
	 viewBox="0 0 156 100" style="enable-background:new 0 0 156 100;" xml:space="preserve">
<style type="text/css">
	.st0{opacity:0.5;fill-rule:evenodd;clip-rule:evenodd;fill:#FFFFFF;enable-background:new    ;}
	.st1{opacity:0.5;fill-rule:evenodd;clip-rule:evenodd;fill-opacity:0.3;enable-background:new    ;}
	.st2{fill-rule:evenodd;clip-rule:evenodd;fill-opacity:0.15;}
	.st3{fill-rule:evenodd;clip-rule:evenodd;fill:#FFFFFF;}
</style>
<g>
	<g>
		<path class="st0" d="M72.4,66.7c9.8,0,17.7-7.4,17.7-16.7s-7.8-16.7-17.7-16.7H21c-9.8,0-17.7,7.4-17.7,16.7S11.2,66.7,21,66.7
			H72.4z"/>
		<path class="st1" d="M21,33.3c-9.8,0-17.7,7.4-17.7,16.7S11.2,66.7,21,66.7h51.4c9.5,0.3,17.4-7.2,17.7-16.7L90,48.2
			c-1.2-8.7-8.8-15.1-17.6-14.9H21z M72.4,70c11.5,0,21-8.7,21-20s-9.5-20-21-20H21C9.5,30,0,38.7,0,50s9.5,20,21,20H72.4z"/>
	</g>
	<g>
		<path class="st2" d="M156,50c0,27.6-22.4,50-50.1,50S55.9,77.6,55.9,50S78.3,0,105.9,0S156,22.4,156,50z M126.5,50L94.1,29.4v41.2
			L126.5,50z M115.6,50L100,40.1v19.8L115.6,50L115.6,50z M105.9,94.1c24.4,0.1,44.3-19.5,44.4-43.9S130.8,6,106.4,5.9
			c-0.1,0-0.3,0-0.4,0C81.5,6,61.8,25.8,62,50.2C62.1,74.4,81.7,94,105.9,94.1z"/>
		<path class="st3" d="M150.1,50c0.1,24.4-19.6,44.2-44,44.3c-24.4,0.1-44.3-19.5-44.4-43.9c0-0.1,0-0.3,0-0.4
			c0.1-24.4,20-44,44.4-43.9C130.4,6.2,150,25.8,150.1,50z M126.5,50L94.1,70.6V29.4L126.5,50L126.5,50z"/>
	</g>
</g>
</svg>
