<?xml version="1.0" encoding="utf-8"?>
<!-- Generator: Adobe Illustrator 26.0.0, SVG Export Plug-In . SVG Version: 6.00 Build 0)  -->
<svg version="1.1" id="Layer_1" xmlns="http://www.w3.org/2000/svg" xmlns:xlink="http://www.w3.org/1999/xlink" x="0px" y="0px"
	 viewBox="0 0 540 420" style="enable-background:new 0 0 540 420;" xml:space="preserve">
<style type="text/css">
	.st0{fill:#FFFFFF;fill-opacity:0.3;}
</style>
<g>
	<path id="ytp-id-17" class="st0" d="M60,0C26.7,0,0,27,0,60v300c0,33,26.7,60,60,60h420c33,0,60-27,60-60V60c0-33-27-60-60-60H60z
		 M240,180h-45v-15h-60v90h60v-15h45v30c0,16.5-13.5,30-30,30h-90c-16.5,0-30-13.5-30-30V150c0-16.5,13.5-30,30-30h90
		c16.5,0,30,13.5,30,30V180L240,180z M450,180h-45v-15h-60v90h60v-15h45v30c0,16.5-13.5,30-30,30h-90c-16.5,0-30-13.5-30-30V150
		c0-16.5,13.5-30,30-30h90c16.5,0,30,13.5,30,30V180L450,180z"/>
</g>
<path id="ytp-id-17_00000161594707199207905840000012719353080567080082_" class="st0" d="M60,0C26.7,0,0,27,0,60v300
	c0,33,26.7,60,60,60h420c33,0,60-27,60-60V60c0-33-27-60-60-60H60z M240,180h-45v-15h-60v90h60v-15h45v30c0,16.5-13.5,30-30,30h-90
	c-16.5,0-30-13.5-30-30V150c0-16.5,13.5-30,30-30h90c16.5,0,30,13.5,30,30V180L240,180z M450,180h-45v-15h-60v90h60v-15h45v30
	c0,16.5-13.5,30-30,30h-90c-16.5,0-30-13.5-30-30V150c0-16.5,13.5-30,30-30h90c16.5,0,30,13.5,30,30V180L450,180z"/>
</svg>
