<?xml version="1.0" encoding="utf-8"?>
<!-- Generator: Adobe Illustrator 26.0.0, SVG Export Plug-In . SVG Version: 6.00 Build 0)  -->
<svg version="1.1" id="Layer_1" xmlns="http://www.w3.org/2000/svg" xmlns:xlink="http://www.w3.org/1999/xlink" x="0px" y="0px"
	 viewBox="0 0 466 478" style="enable-background:new 0 0 466 478;" xml:space="preserve">
<style type="text/css">
	.st0{fill:#FFFFFF;}
</style>
<g>
	<path id="ytp-id-19" class="st0" d="M411.2,262.4c0.9-7.5,1.5-15.3,1.5-23.4s-0.6-15.6-1.5-23.4l50.4-39.6
		c4.5-3.6,5.7-9.9,2.7-15.3l-48-82.8c-2.7-5.1-9.3-7.2-14.4-5.1l-59.7,24c-12.3-9.6-25.8-17.4-40.5-23.4l-9-63.6
		c-0.6-5.7-5.7-9.9-11.7-9.9h-96c-6,0-10.8,4.2-11.7,9.9l-9,63.6c-14.4,6-27.9,14.1-40.5,23.4l-59.7-24c-5.4-2.1-11.7,0-14.4,5.1
		l-48,82.8c-3,5.1-1.5,11.7,2.7,15.3l50.4,39.6c-0.9,7.5-1.5,15.6-1.5,23.4s0.6,15.6,1.5,23.4L4.4,302c-4.5,3.6-5.7,9.9-2.7,15.3
		l48,82.8c2.7,5.1,9.3,7.2,14.4,5.1l59.7-24c12.3,9.6,25.8,17.4,40.5,23.4l9,63.6c0.6,5.7,5.7,9.9,11.7,9.9h96
		c6,0,10.8-4.2,11.7-9.9l9-63.6c14.4-6,27.9-14.1,40.5-23.4l59.7,24c5.4,2.1,11.7,0,14.4-5.1l48-82.8c2.7-5.1,1.5-11.7-2.7-15.3
		L411.2,262.4L411.2,262.4L411.2,262.4z M233,322.7c-46.2,0-84-37.5-84-84c0-46.2,37.5-84,84-84c46.2,0,84,37.5,84,84
		C317,284.9,279.5,322.7,233,322.7L233,322.7z"/>
</g>
<path d="M461.6,302l-50.4-39.6v0c0.9-7.5,1.5-15.3,1.5-23.4s-0.6-15.6-1.5-23.4l50.4-39.6c4.5-3.6,5.7-9.9,2.7-15.3l-48-82.8
	c-2.7-5.1-9.3-7.2-14.4-5.1l-59.7,24c-12.3-9.6-25.8-17.4-40.5-23.4l-9-63.6C292.1,4.2,287,0,281,0h-96c-6,0-10.8,4.2-11.7,9.9
	l-9,63.6c-14.4,6-27.9,14.1-40.5,23.4l-59.7-24c-5.4-2.1-11.7,0-14.4,5.1l-48,82.8c-3,5.1-1.5,11.7,2.7,15.3l50.4,39.6
	c-0.9,7.5-1.5,15.6-1.5,23.4s0.6,15.6,1.5,23.4L4.4,302c-4.5,3.6-5.7,9.9-2.7,15.3l48,82.8c2.7,5.1,9.3,7.2,14.4,5.1l59.7-24
	c12.3,9.6,25.8,17.4,40.5,23.4l9,63.6c0.6,5.7,5.7,9.9,11.7,9.9h96c6,0,10.8-4.2,11.7-9.9l9-63.6c14.4-6,27.9-14.1,40.5-23.4
	l59.7,24c5.4,2.1,11.7,0,14.4-5.1l48-82.8C467,312.2,465.8,305.6,461.6,302z M233,322.7c-46.2,0-84-37.5-84-84c0-46.2,37.5-84,84-84
	c46.2,0,84,37.5,84,84C317,284.9,279.5,322.7,233,322.7z"/>
</svg>
