<?xml version="1.0" encoding="utf-8"?>
<!-- Generator: Adobe Illustrator 26.0.0, SVG Export Plug-In . SVG Version: 6.00 Build 0)  -->
<svg version="1.1" id="Layer_1" xmlns="http://www.w3.org/2000/svg" xmlns:xlink="http://www.w3.org/1999/xlink" x="0px" y="0px"
	 viewBox="0 0 1530 1080" style="enable-background:new 0 0 1530 1080;" xml:space="preserve">
<style type="text/css">
	.st0{fill:#FF0000;}
	.st1{fill:#FFFFFF;}
</style>
<path class="st0" d="M1496.7,174.1c-17.6-65.9-56-121.7-121.9-139.3C1255.3,2.9,765,0,765,0S274.7,2.9,155.2,34.9
	C89.3,52.4,51.1,108.2,33.3,174.1C1.4,293.6,0,540,0,540s1.4,246.4,33.3,365.9c17.5,65.9,56,121.7,121.9,139.3
	C274.7,1077.1,765,1080,765,1080s490.3-2.9,609.8-34.9c65.9-17.5,104.4-73.3,121.9-139.3c32-119.5,33.3-365.9,33.3-365.9
	S1528.7,293.6,1496.7,174.1z"/>
<path class="st1" d="M967.5,540l-405-225v450"/>
</svg>
