<?xml version="1.0" encoding="utf-8"?>
<!-- Generator: Adobe Illustrator 26.0.0, SVG Export Plug-In . SVG Version: 6.00 Build 0)  -->
<svg version="1.1" id="Layer_1" xmlns="http://www.w3.org/2000/svg" xmlns:xlink="http://www.w3.org/1999/xlink" x="0px" y="0px"
	 viewBox="0 0 480 480" style="enable-background:new 0 0 480 480;" xml:space="preserve">
<g>
	<g>
		<g>
			<path id="ytp-id-7" d="M0,180h60V60h120V0H0V180L0,180z"/>
		</g>
		<path id="ytp-id-7_00000040541683427375169970000009650150590983342978_" d="M0,180h60V60h120V0H0V180L0,180z"/>
	</g>
	<g>
		<g>
			<path id="ytp-id-8" d="M300,0v60h120v120h60V0H300L300,0z"/>
		</g>
		<path id="ytp-id-8_00000091726497559690738510000000198207285889472640_" d="M300,0v60h120v120h60V0H300L300,0z"/>
	</g>
	<g>
		<g>
			<path id="ytp-id-9" d="M420,420H300v60h180V300h-60V420L420,420z"/>
		</g>
		<path id="ytp-id-9_00000167361988673623885970000000406287126416305313_" d="M420,420H300v60h180V300h-60V420L420,420z"/>
	</g>
	<g>
		<g>
			<path id="ytp-id-10" d="M60,300H0v180h180v-60H60V300L60,300z"/>
		</g>
		<path id="ytp-id-10_00000033357231551572218120000004403922396604233128_" d="M60,300H0v180h180v-60H60V300L60,300z"/>
	</g>
</g>
</svg>
